# Blender v2.82 (sub 7) OBJ File: ''
# www.blender.org
mtllib midtile_template04.mtl
g Plane.009_Plane.049
v -1.000000 0.000000 1.000000
v 1.000000 0.000000 1.000000
v -1.000000 0.000000 -1.000000
v 1.000000 0.000000 -1.000000
vt 0.000000 0.000000
vt 1.000000 0.000000
vt 1.000000 1.000000
vt 0.000000 1.000000
vn 0.0000 1.0000 0.0000
usemtl None
s off
f 1/1/1 2/2/1 4/3/1 3/4/1
g Plane.001_Plane.157
v 3.000000 0.000000 -1.000000
v 3.000000 0.000000 -3.000000
v 5.000000 0.000000 -1.000000
v 5.000000 0.000000 -3.000000
vt 0.000000 0.000000
vt 1.000000 0.000000
vt 1.000000 1.000000
vt 0.000000 1.000000
vn 0.0000 1.0000 0.0000
usemtl None
s off
f 5/5/2 7/6/2 8/7/2 6/8/2
g Plane.002_Plane.158
v 3.000000 0.000000 1.000000
v 3.000000 0.000000 -1.000000
v 5.000000 0.000000 1.000000
v 5.000000 0.000000 -1.000000
vt 0.000000 0.000000
vt 1.000000 0.000000
vt 1.000000 1.000000
vt 0.000000 1.000000
vn 0.0000 1.0000 0.0000
usemtl None
s off
f 9/9/3 11/10/3 12/11/3 10/12/3
g Plane.003_Plane.159
v 1.000000 0.000000 -1.000000
v 1.000000 0.000000 -3.000000
v 3.000000 0.000000 -1.000000
v 3.000000 0.000000 -3.000000
vt 0.000000 0.000000
vt 1.000000 0.000000
vt 1.000000 1.000000
vt 0.000000 1.000000
vn 0.0000 1.0000 0.0000
usemtl None
s off
f 13/13/4 15/14/4 16/15/4 14/16/4
g Plane.004_Plane.160
v 1.000000 0.000000 1.000000
v 1.000000 0.000000 -1.000000
v 3.000000 0.000000 1.000000
v 3.000000 0.000000 -1.000000
vt 0.000000 0.000000
vt 1.000000 0.000000
vt 1.000000 1.000000
vt 0.000000 1.000000
vn 0.0000 1.0000 0.0000
usemtl None
s off
f 17/17/5 19/18/5 20/19/5 18/20/5
g Plane.005_Plane.161
v 1.000000 0.000000 -3.000000
v 1.000000 0.000000 -5.000000
v 3.000000 0.000000 -3.000000
v 3.000000 0.000000 -5.000000
vt 0.000000 0.000000
vt 1.000000 0.000000
vt 1.000000 1.000000
vt 0.000000 1.000000
vn 0.0000 1.0000 0.0000
usemtl None
s off
f 21/21/6 23/22/6 24/23/6 22/24/6
g Plane.006_Plane.162
v -1.000000 0.000000 -1.000000
v -1.000000 0.000000 -3.000000
v 1.000000 0.000000 -1.000000
v 1.000000 0.000000 -3.000000
vt 0.000000 0.000000
vt 1.000000 0.000000
vt 1.000000 1.000000
vt 0.000000 1.000000
vn 0.0000 1.0000 0.0000
usemtl None
s off
f 25/25/7 27/26/7 28/27/7 26/28/7
g Plane.007_Plane.163
v -1.000000 0.000000 -3.000000
v -1.000000 0.000000 -5.000000
v 1.000000 0.000000 -3.000000
v 1.000000 0.000000 -5.000000
vt 0.000000 0.000000
vt 1.000000 0.000000
vt 1.000000 1.000000
vt 0.000000 1.000000
vn 0.0000 1.0000 0.0000
usemtl None
s off
f 29/29/8 31/30/8 32/31/8 30/32/8
g Plane.008_Plane.164
v -3.000000 0.000000 -1.000000
v -3.000000 0.000000 -3.000000
v -1.000000 0.000000 -1.000000
v -1.000000 0.000000 -3.000000
vt 0.000000 0.000000
vt 1.000000 0.000000
vt 1.000000 1.000000
vt 0.000000 1.000000
vn 0.0000 1.0000 0.0000
usemtl None
s off
f 33/33/9 35/34/9 36/35/9 34/36/9
g Plane.010_Plane.165
v -3.000000 0.000000 1.000000
v -3.000000 0.000000 -1.000000
v -1.000000 0.000000 1.000000
v -1.000000 0.000000 -1.000000
vt 0.000000 0.000000
vt 1.000000 0.000000
vt 1.000000 1.000000
vt 0.000000 1.000000
vn 0.0000 1.0000 0.0000
usemtl None
s off
f 37/37/10 39/38/10 40/39/10 38/40/10
g Plane.011_Plane.166
v -3.000000 0.000000 -3.000000
v -3.000000 0.000000 -5.000000
v -1.000000 0.000000 -3.000000
v -1.000000 0.000000 -5.000000
vt 0.000000 0.000000
vt 1.000000 0.000000
vt 1.000000 1.000000
vt 0.000000 1.000000
vn 0.0000 1.0000 0.0000
usemtl None
s off
f 41/41/11 43/42/11 44/43/11 42/44/11
g Plane.012_Plane.167
v -5.000000 0.000000 5.000000
v -5.000000 0.000000 3.000000
v -5.000000 2.000000 5.000000
v -3.000000 0.000000 5.000000
v -3.000000 0.000000 3.000000
v -3.000000 2.000000 5.000000
v -3.000000 2.000000 3.000000
v -5.000000 2.000000 3.000000
vt 0.375000 0.000000
vt 0.625000 0.000000
vt 0.625000 0.250000
vt 0.375000 0.250000
vt 0.125000 0.500000
vt 0.375000 0.500000
vt 0.375000 0.750000
vt 0.125000 0.750000
vt 0.625000 0.750000
vt 0.625000 1.000000
vt 0.375000 1.000000
vt 0.625000 0.500000
vt 0.875000 0.500000
vt 0.875000 0.750000
vn -1.0000 0.0000 0.0000
vn 0.0000 -1.0000 0.0000
vn 0.0000 0.0000 1.0000
vn 1.0000 0.0000 0.0000
vn 0.0000 1.0000 0.0000
vn 0.0000 0.0000 -1.0000
usemtl None
s off
f 45/45/12 47/46/12 52/47/12 46/48/12
f 46/49/13 49/50/13 48/51/13 45/52/13
f 48/51/14 50/53/14 47/54/14 45/55/14
f 49/50/15 51/56/15 50/53/15 48/51/15
f 51/56/16 52/57/16 47/58/16 50/53/16
f 46/48/17 52/47/17 51/56/17 49/50/17
g Plane.013_Plane.168
v 3.000000 0.000000 5.000000
v 3.000000 0.000000 3.000000
v 3.000000 2.000000 5.000000
v 5.000000 0.000000 5.000000
v 5.000000 0.000000 3.000000
v 5.000000 2.000000 5.000000
v 5.000000 2.000000 3.000000
v 3.000000 2.000000 3.000000
vt 0.375000 0.000000
vt 0.625000 0.000000
vt 0.625000 0.250000
vt 0.375000 0.250000
vt 0.125000 0.500000
vt 0.375000 0.500000
vt 0.375000 0.750000
vt 0.125000 0.750000
vt 0.625000 0.750000
vt 0.625000 1.000000
vt 0.375000 1.000000
vt 0.625000 0.500000
vt 0.875000 0.500000
vt 0.875000 0.750000
vn -1.0000 0.0000 0.0000
vn 0.0000 -1.0000 0.0000
vn 0.0000 0.0000 1.0000
vn 1.0000 0.0000 0.0000
vn 0.0000 1.0000 0.0000
vn 0.0000 0.0000 -1.0000
usemtl None
s off
f 53/59/18 55/60/18 60/61/18 54/62/18
f 54/63/19 57/64/19 56/65/19 53/66/19
f 56/65/20 58/67/20 55/68/20 53/69/20
f 57/64/21 59/70/21 58/67/21 56/65/21
f 59/70/22 60/71/22 55/72/22 58/67/22
f 54/62/23 60/61/23 59/70/23 57/64/23
g Plane.014_Plane.169
v 1.000000 0.000000 5.000000
v 1.000000 0.000000 3.000000
v 1.000000 2.000000 5.000000
v 3.000000 0.000000 5.000000
v 3.000000 0.000000 3.000000
v 3.000000 2.000000 5.000000
v 3.000000 2.000000 3.000000
v 1.000000 2.000000 3.000000
vt 0.375000 0.000000
vt 0.625000 0.000000
vt 0.625000 0.250000
vt 0.375000 0.250000
vt 0.125000 0.500000
vt 0.375000 0.500000
vt 0.375000 0.750000
vt 0.125000 0.750000
vt 0.625000 0.750000
vt 0.625000 1.000000
vt 0.375000 1.000000
vt 0.625000 0.500000
vt 0.875000 0.500000
vt 0.875000 0.750000
vn -1.0000 0.0000 0.0000
vn 0.0000 -1.0000 0.0000
vn 0.0000 0.0000 1.0000
vn 1.0000 0.0000 0.0000
vn 0.0000 1.0000 0.0000
vn 0.0000 0.0000 -1.0000
usemtl None
s off
f 61/73/24 63/74/24 68/75/24 62/76/24
f 62/77/25 65/78/25 64/79/25 61/80/25
f 64/79/26 66/81/26 63/82/26 61/83/26
f 65/78/27 67/84/27 66/81/27 64/79/27
f 67/84/28 68/85/28 63/86/28 66/81/28
f 62/76/29 68/75/29 67/84/29 65/78/29
g Plane.015_Plane.170
v -1.000000 0.000000 5.000000
v -1.000000 0.000000 3.000000
v -1.000000 2.000000 5.000000
v 1.000000 0.000000 5.000000
v 1.000000 0.000000 3.000000
v 1.000000 2.000000 5.000000
v 1.000000 2.000000 3.000000
v -1.000000 2.000000 3.000000
vt 0.375000 0.000000
vt 0.625000 0.000000
vt 0.625000 0.250000
vt 0.375000 0.250000
vt 0.125000 0.500000
vt 0.375000 0.500000
vt 0.375000 0.750000
vt 0.125000 0.750000
vt 0.625000 0.750000
vt 0.625000 1.000000
vt 0.375000 1.000000
vt 0.625000 0.500000
vt 0.875000 0.500000
vt 0.875000 0.750000
vn -1.0000 0.0000 0.0000
vn 0.0000 -1.0000 0.0000
vn 0.0000 0.0000 1.0000
vn 1.0000 0.0000 0.0000
vn 0.0000 1.0000 0.0000
vn 0.0000 0.0000 -1.0000
usemtl None
s off
f 69/87/30 71/88/30 76/89/30 70/90/30
f 70/91/31 73/92/31 72/93/31 69/94/31
f 72/93/32 74/95/32 71/96/32 69/97/32
f 73/92/33 75/98/33 74/95/33 72/93/33
f 75/98/34 76/99/34 71/100/34 74/95/34
f 70/90/35 76/89/35 75/98/35 73/92/35
g Plane.016_Plane.171
v -3.000000 0.000000 5.000000
v -3.000000 0.000000 3.000000
v -3.000000 2.000000 5.000000
v -1.000000 0.000000 5.000000
v -1.000000 0.000000 3.000000
v -1.000000 2.000000 5.000000
v -1.000000 2.000000 3.000000
v -3.000000 2.000000 3.000000
vt 0.375000 0.000000
vt 0.625000 0.000000
vt 0.625000 0.250000
vt 0.375000 0.250000
vt 0.125000 0.500000
vt 0.375000 0.500000
vt 0.375000 0.750000
vt 0.125000 0.750000
vt 0.625000 0.750000
vt 0.625000 1.000000
vt 0.375000 1.000000
vt 0.625000 0.500000
vt 0.875000 0.500000
vt 0.875000 0.750000
vn -1.0000 0.0000 0.0000
vn 0.0000 -1.0000 0.0000
vn 0.0000 0.0000 1.0000
vn 1.0000 0.0000 0.0000
vn 0.0000 1.0000 0.0000
vn 0.0000 0.0000 -1.0000
usemtl None
s off
f 77/101/36 79/102/36 84/103/36 78/104/36
f 78/105/37 81/106/37 80/107/37 77/108/37
f 80/107/38 82/109/38 79/110/38 77/111/38
f 81/106/39 83/112/39 82/109/39 80/107/39
f 83/112/40 84/113/40 79/114/40 82/109/40
f 78/104/41 84/103/41 83/112/41 81/106/41
g Plane.017_Plane.172
v -1.000000 0.000000 3.000000
v -1.000000 0.000000 1.000000
v 1.000000 0.000000 3.000000
v 1.000000 0.000000 1.000000
vt 0.000000 0.000000
vt 1.000000 0.000000
vt 1.000000 1.000000
vt 0.000000 1.000000
vn 0.0000 1.0000 0.0000
usemtl None
s off
f 85/115/42 87/116/42 88/117/42 86/118/42
g Plane.018_Plane.173
v 3.000000 0.000000 3.000001
v 3.000000 0.000000 1.000001
v 5.000000 0.000000 3.000001
v 5.000000 0.000000 1.000001
vt 0.000000 0.000000
vt 1.000000 0.000000
vt 1.000000 1.000000
vt 0.000000 1.000000
vn 0.0000 1.0000 0.0000
usemtl None
s off
f 89/119/43 91/120/43 92/121/43 90/122/43
g Plane.019_Plane.174
v 1.000000 0.000000 3.000000
v 1.000000 0.000000 1.000000
v 3.000000 0.000000 3.000000
v 3.000000 0.000000 1.000000
vt 0.000000 0.000000
vt 1.000000 0.000000
vt 1.000000 1.000000
vt 0.000000 1.000000
vn 0.0000 1.0000 0.0000
usemtl None
s off
f 93/123/44 95/124/44 96/125/44 94/126/44
g Plane.020_Plane.175
v -3.000000 0.000000 3.000000
v -3.000000 0.000000 1.000000
v -1.000000 0.000000 3.000000
v -1.000000 0.000000 1.000000
vt 0.000000 0.000000
vt 1.000000 0.000000
vt 1.000000 1.000000
vt 0.000000 1.000000
vn 0.0000 1.0000 0.0000
usemtl None
s off
f 97/127/45 99/128/45 100/129/45 98/130/45
g Plane.021_Plane.176
v -5.000000 0.000000 -3.000000
v -5.000000 0.000000 -5.000000
v -5.000000 2.000000 -3.000000
v -3.000000 0.000000 -3.000000
v -3.000000 0.000000 -5.000000
v -3.000000 2.000000 -3.000000
v -3.000000 2.000000 -5.000000
v -5.000000 2.000000 -5.000000
vt 0.375000 0.000000
vt 0.625000 0.000000
vt 0.625000 0.250000
vt 0.375000 0.250000
vt 0.125000 0.500000
vt 0.375000 0.500000
vt 0.375000 0.750000
vt 0.125000 0.750000
vt 0.625000 0.750000
vt 0.625000 1.000000
vt 0.375000 1.000000
vt 0.625000 0.500000
vt 0.875000 0.500000
vt 0.875000 0.750000
vn -1.0000 0.0000 0.0000
vn 0.0000 -1.0000 0.0000
vn 0.0000 0.0000 1.0000
vn 1.0000 0.0000 0.0000
vn 0.0000 1.0000 0.0000
vn 0.0000 0.0000 -1.0000
usemtl None
s off
f 101/131/46 103/132/46 108/133/46 102/134/46
f 102/135/47 105/136/47 104/137/47 101/138/47
f 104/137/48 106/139/48 103/140/48 101/141/48
f 105/136/49 107/142/49 106/139/49 104/137/49
f 107/142/50 108/143/50 103/144/50 106/139/50
f 102/134/51 108/133/51 107/142/51 105/136/51
g Plane.022_Plane.177
v 3.000000 0.000000 -3.000000
v 3.000000 0.000000 -5.000000
v 3.000000 2.000000 -3.000000
v 5.000000 0.000000 -3.000000
v 5.000000 0.000000 -5.000000
v 5.000000 2.000000 -3.000000
v 5.000000 2.000000 -5.000000
v 3.000000 2.000000 -5.000000
vt 0.375000 0.000000
vt 0.625000 0.000000
vt 0.625000 0.250000
vt 0.375000 0.250000
vt 0.125000 0.500000
vt 0.375000 0.500000
vt 0.375000 0.750000
vt 0.125000 0.750000
vt 0.625000 0.750000
vt 0.625000 1.000000
vt 0.375000 1.000000
vt 0.625000 0.500000
vt 0.875000 0.500000
vt 0.875000 0.750000
vn -1.0000 0.0000 0.0000
vn 0.0000 -1.0000 0.0000
vn 0.0000 0.0000 1.0000
vn 1.0000 0.0000 0.0000
vn 0.0000 1.0000 0.0000
vn 0.0000 0.0000 -1.0000
usemtl None
s off
f 109/145/52 111/146/52 116/147/52 110/148/52
f 110/149/53 113/150/53 112/151/53 109/152/53
f 112/151/54 114/153/54 111/154/54 109/155/54
f 113/150/55 115/156/55 114/153/55 112/151/55
f 115/156/56 116/157/56 111/158/56 114/153/56
f 110/148/57 116/147/57 115/156/57 113/150/57
g Plane.023_Plane.178
v -5.000000 0.000000 3.000000
v -5.000000 0.000000 1.000000
v -5.000000 2.000000 3.000000
v -3.000000 0.000000 3.000000
v -3.000000 0.000000 1.000000
v -3.000000 2.000000 3.000000
v -3.000000 2.000000 1.000000
v -5.000000 2.000000 1.000000
vt 0.375000 0.000000
vt 0.625000 0.000000
vt 0.625000 0.250000
vt 0.375000 0.250000
vt 0.125000 0.500000
vt 0.375000 0.500000
vt 0.375000 0.750000
vt 0.125000 0.750000
vt 0.625000 0.750000
vt 0.625000 1.000000
vt 0.375000 1.000000
vt 0.625000 0.500000
vt 0.875000 0.500000
vt 0.875000 0.750000
vn -1.0000 0.0000 0.0000
vn 0.0000 -1.0000 0.0000
vn 0.0000 0.0000 1.0000
vn 1.0000 0.0000 0.0000
vn 0.0000 1.0000 0.0000
vn 0.0000 0.0000 -1.0000
usemtl None
s off
f 117/159/58 119/160/58 124/161/58 118/162/58
f 118/163/59 121/164/59 120/165/59 117/166/59
f 120/165/60 122/167/60 119/168/60 117/169/60
f 121/164/61 123/170/61 122/167/61 120/165/61
f 123/170/62 124/171/62 119/172/62 122/167/62
f 118/162/63 124/161/63 123/170/63 121/164/63
g Plane.024_Plane.179
v -5.000000 0.000000 1.000000
v -5.000000 0.000000 -1.000000
v -5.000000 2.000000 1.000000
v -3.000000 0.000000 1.000000
v -3.000000 0.000000 -1.000000
v -3.000000 2.000000 1.000000
v -3.000000 2.000000 -1.000000
v -5.000000 2.000000 -1.000000
vt 0.375000 0.000000
vt 0.625000 0.000000
vt 0.625000 0.250000
vt 0.375000 0.250000
vt 0.125000 0.500000
vt 0.375000 0.500000
vt 0.375000 0.750000
vt 0.125000 0.750000
vt 0.625000 0.750000
vt 0.625000 1.000000
vt 0.375000 1.000000
vt 0.625000 0.500000
vt 0.875000 0.500000
vt 0.875000 0.750000
vn -1.0000 0.0000 0.0000
vn 0.0000 -1.0000 0.0000
vn 0.0000 0.0000 1.0000
vn 1.0000 0.0000 0.0000
vn 0.0000 1.0000 0.0000
vn 0.0000 0.0000 -1.0000
usemtl None
s off
f 125/173/64 127/174/64 132/175/64 126/176/64
f 126/177/65 129/178/65 128/179/65 125/180/65
f 128/179/66 130/181/66 127/182/66 125/183/66
f 129/178/67 131/184/67 130/181/67 128/179/67
f 131/184/68 132/185/68 127/186/68 130/181/68
f 126/176/69 132/175/69 131/184/69 129/178/69
g Plane.025_Plane.180
v -5.000000 0.000000 -1.000000
v -5.000000 0.000000 -3.000000
v -5.000000 2.000000 -1.000000
v -3.000000 0.000000 -1.000000
v -3.000000 0.000000 -3.000000
v -3.000000 2.000000 -1.000000
v -3.000000 2.000000 -3.000000
v -5.000000 2.000000 -3.000000
vt 0.375000 0.000000
vt 0.625000 0.000000
vt 0.625000 0.250000
vt 0.375000 0.250000
vt 0.125000 0.500000
vt 0.375000 0.500000
vt 0.375000 0.750000
vt 0.125000 0.750000
vt 0.625000 0.750000
vt 0.625000 1.000000
vt 0.375000 1.000000
vt 0.625000 0.500000
vt 0.875000 0.500000
vt 0.875000 0.750000
vn -1.0000 0.0000 0.0000
vn 0.0000 -1.0000 0.0000
vn 0.0000 0.0000 1.0000
vn 1.0000 0.0000 0.0000
vn 0.0000 1.0000 0.0000
vn 0.0000 0.0000 -1.0000
usemtl None
s off
f 133/187/70 135/188/70 140/189/70 134/190/70
f 134/191/71 137/192/71 136/193/71 133/194/71
f 136/193/72 138/195/72 135/196/72 133/197/72
f 137/192/73 139/198/73 138/195/73 136/193/73
f 139/198/74 140/199/74 135/200/74 138/195/74
f 134/190/75 140/189/75 139/198/75 137/192/75
