# Blender v2.82 (sub 7) OBJ File: ''
# www.blender.org
mtllib transiTile_template01.mtl
g Plane.009_Plane.049
v -1.000000 0.000000 1.000000
v 1.000000 0.000000 1.000000
v -1.000000 0.000000 -1.000000
v 1.000000 0.000000 -1.000000
vt 0.000000 0.000000
vt 1.000000 0.000000
vt 1.000000 1.000000
vt 0.000000 1.000000
vn 0.0000 1.0000 0.0000
usemtl None
s off
f 1/1/1 2/2/1 4/3/1 3/4/1
g Plane.001_Plane.217
v 3.000000 0.000000 -1.000000
v 3.000000 0.000000 -3.000000
v 5.000000 0.000000 -1.000000
v 5.000000 0.000000 -3.000000
vt 0.000000 0.000000
vt 1.000000 0.000000
vt 1.000000 1.000000
vt 0.000000 1.000000
vn 0.0000 1.0000 0.0000
usemtl None
s off
f 5/5/2 7/6/2 8/7/2 6/8/2
g Plane.002_Plane.218
v 3.000000 0.000000 1.000000
v 3.000000 0.000000 -1.000000
v 5.000000 0.000000 1.000000
v 5.000000 0.000000 -1.000000
vt 0.000000 0.000000
vt 1.000000 0.000000
vt 1.000000 1.000000
vt 0.000000 1.000000
vn 0.0000 1.0000 0.0000
usemtl None
s off
f 9/9/3 11/10/3 12/11/3 10/12/3
g Plane.003_Plane.219
v 1.000000 0.000000 -1.000000
v 1.000000 0.000000 -3.000000
v 3.000000 0.000000 -1.000000
v 3.000000 0.000000 -3.000000
vt 0.000000 0.000000
vt 1.000000 0.000000
vt 1.000000 1.000000
vt 0.000000 1.000000
vn 0.0000 1.0000 0.0000
usemtl None
s off
f 13/13/4 15/14/4 16/15/4 14/16/4
g Plane.004_Plane.220
v 1.000000 0.000000 1.000000
v 1.000000 0.000000 -1.000000
v 3.000000 0.000000 1.000000
v 3.000000 0.000000 -1.000000
vt 0.000000 0.000000
vt 1.000000 0.000000
vt 1.000000 1.000000
vt 0.000000 1.000000
vn 0.0000 1.0000 0.0000
usemtl None
s off
f 17/17/5 19/18/5 20/19/5 18/20/5
g Plane.005_Plane.221
v 1.000000 0.000000 -3.000000
v 1.000000 0.000000 -5.000000
v 3.000000 0.000000 -3.000000
v 3.000000 0.000000 -5.000000
vt 0.000000 0.000000
vt 1.000000 0.000000
vt 1.000000 1.000000
vt 0.000000 1.000000
vn 0.0000 1.0000 0.0000
usemtl None
s off
f 21/21/6 23/22/6 24/23/6 22/24/6
g Plane.006_Plane.222
v -1.000000 0.000000 -1.000000
v -1.000000 0.000000 -3.000000
v 1.000000 0.000000 -1.000000
v 1.000000 0.000000 -3.000000
vt 0.000000 0.000000
vt 1.000000 0.000000
vt 1.000000 1.000000
vt 0.000000 1.000000
vn 0.0000 1.0000 0.0000
usemtl None
s off
f 25/25/7 27/26/7 28/27/7 26/28/7
g Plane.007_Plane.223
v -1.000000 0.000000 -3.000000
v -1.000000 0.000000 -5.000000
v 1.000000 0.000000 -3.000000
v 1.000000 0.000000 -5.000000
vt 0.000000 0.000000
vt 1.000000 0.000000
vt 1.000000 1.000000
vt 0.000000 1.000000
vn 0.0000 1.0000 0.0000
usemtl None
s off
f 29/29/8 31/30/8 32/31/8 30/32/8
g Plane.008_Plane.224
v -3.000000 0.000000 -1.000000
v -3.000000 0.000000 -3.000000
v -1.000000 0.000000 -1.000000
v -1.000000 0.000000 -3.000000
vt 0.000000 0.000000
vt 1.000000 0.000000
vt 1.000000 1.000000
vt 0.000000 1.000000
vn 0.0000 1.0000 0.0000
usemtl None
s off
f 33/33/9 35/34/9 36/35/9 34/36/9
g Plane.010_Plane.225
v -3.000000 0.000000 1.000000
v -3.000000 0.000000 -1.000000
v -1.000000 0.000000 1.000000
v -1.000000 0.000000 -1.000000
vt 0.000000 0.000000
vt 1.000000 0.000000
vt 1.000000 1.000000
vt 0.000000 1.000000
vn 0.0000 1.0000 0.0000
usemtl None
s off
f 37/37/10 39/38/10 40/39/10 38/40/10
g Plane.011_Plane.226
v -3.000000 0.000000 -3.000000
v -3.000000 0.000000 -5.000000
v -1.000000 0.000000 -3.000000
v -1.000000 0.000000 -5.000000
vt 0.000000 0.000000
vt 1.000000 0.000000
vt 1.000000 1.000000
vt 0.000000 1.000000
vn 0.0000 1.0000 0.0000
usemtl None
s off
f 41/41/11 43/42/11 44/43/11 42/44/11
g Plane.012_Plane.227
v -5.000000 0.000000 5.000000
v -5.000000 0.000000 3.000000
v -5.000000 2.000000 5.000000
v -3.000000 0.000000 5.000000
v -3.000000 0.000000 3.000000
v -3.000000 2.000000 5.000000
v -3.000000 2.000000 3.000000
v -5.000000 2.000000 3.000000
vt 0.375000 0.000000
vt 0.625000 0.000000
vt 0.625000 0.250000
vt 0.375000 0.250000
vt 0.125000 0.500000
vt 0.375000 0.500000
vt 0.375000 0.750000
vt 0.125000 0.750000
vt 0.625000 0.750000
vt 0.625000 1.000000
vt 0.375000 1.000000
vt 0.625000 0.500000
vt 0.875000 0.500000
vt 0.875000 0.750000
vn -1.0000 0.0000 0.0000
vn 0.0000 -1.0000 0.0000
vn 0.0000 0.0000 1.0000
vn 1.0000 0.0000 0.0000
vn 0.0000 1.0000 0.0000
vn 0.0000 0.0000 -1.0000
usemtl None
s off
f 45/45/12 47/46/12 52/47/12 46/48/12
f 46/49/13 49/50/13 48/51/13 45/52/13
f 48/51/14 50/53/14 47/54/14 45/55/14
f 49/50/15 51/56/15 50/53/15 48/51/15
f 51/56/16 52/57/16 47/58/16 50/53/16
f 46/48/17 52/47/17 51/56/17 49/50/17
g Plane.013_Plane.228
v -1.000000 0.000000 3.000000
v -1.000000 0.000000 1.000000
v 1.000000 0.000000 3.000000
v 1.000000 0.000000 1.000000
vt 0.000000 0.000000
vt 1.000000 0.000000
vt 1.000000 1.000000
vt 0.000000 1.000000
vn 0.0000 1.0000 0.0000
usemtl None
s off
f 53/59/18 55/60/18 56/61/18 54/62/18
g Plane.014_Plane.229
v 1.000000 0.000000 3.000000
v 1.000000 0.000000 1.000000
v 3.000000 0.000000 3.000000
v 3.000000 0.000000 1.000000
vt 0.000000 0.000000
vt 1.000000 0.000000
vt 1.000000 1.000000
vt 0.000000 1.000000
vn 0.0000 1.0000 0.0000
usemtl None
s off
f 57/63/19 59/64/19 60/65/19 58/66/19
g Plane.015_Plane.230
v -5.000000 0.000000 3.000000
v -5.000000 0.000000 1.000000
v -5.000000 2.000000 3.000000
v -3.000000 0.000000 3.000000
v -3.000000 0.000000 1.000000
v -3.000000 2.000000 3.000000
v -3.000000 2.000000 1.000000
v -5.000000 2.000000 1.000000
vt 0.375000 0.000000
vt 0.625000 0.000000
vt 0.625000 0.250000
vt 0.375000 0.250000
vt 0.125000 0.500000
vt 0.375000 0.500000
vt 0.375000 0.750000
vt 0.125000 0.750000
vt 0.625000 0.750000
vt 0.625000 1.000000
vt 0.375000 1.000000
vt 0.625000 0.500000
vt 0.875000 0.500000
vt 0.875000 0.750000
vn -1.0000 0.0000 0.0000
vn 0.0000 -1.0000 0.0000
vn 0.0000 0.0000 1.0000
vn 1.0000 0.0000 0.0000
vn 0.0000 1.0000 0.0000
vn 0.0000 0.0000 -1.0000
usemtl None
s off
f 61/67/20 63/68/20 68/69/20 62/70/20
f 62/71/21 65/72/21 64/73/21 61/74/21
f 64/73/22 66/75/22 63/76/22 61/77/22
f 65/72/23 67/78/23 66/75/23 64/73/23
f 67/78/24 68/79/24 63/80/24 66/75/24
f 62/70/25 68/69/25 67/78/25 65/72/25
g Plane.016_Plane.231
v 3.000000 0.000000 -3.000000
v 3.000000 0.000000 -5.000000
v 5.000000 0.000000 -3.000000
v 5.000000 0.000000 -5.000000
vt 0.000000 0.000000
vt 1.000000 0.000000
vt 1.000000 1.000000
vt 0.000000 1.000000
vn 0.0000 1.0000 0.0000
usemtl None
s off
f 69/81/26 71/82/26 72/83/26 70/84/26
g Plane.017_Plane.232
v -5.000000 0.000000 -1.000000
v -5.000000 0.000000 -3.000000
v -3.000000 0.000000 -1.000000
v -3.000000 0.000000 -3.000000
vt 0.000000 0.000000
vt 1.000000 0.000000
vt 1.000000 1.000000
vt 0.000000 1.000000
vn 0.0000 1.0000 0.0000
usemtl None
s off
f 73/85/27 75/86/27 76/87/27 74/88/27
g Plane.018_Plane.233
v -5.000000 0.000000 1.000000
v -5.000000 0.000000 -1.000000
v -3.000000 0.000000 1.000000
v -3.000000 0.000000 -1.000000
vt 0.000000 0.000000
vt 1.000000 0.000000
vt 1.000000 1.000000
vt 0.000000 1.000000
vn 0.0000 1.0000 0.0000
usemtl None
s off
f 77/89/28 79/90/28 80/91/28 78/92/28
g Plane.019_Plane.234
v -5.000000 0.000000 -3.000000
v -5.000000 0.000000 -5.000000
v -3.000000 0.000000 -3.000000
v -3.000000 0.000000 -5.000000
vt 0.000000 0.000000
vt 1.000000 0.000000
vt 1.000000 1.000000
vt 0.000000 1.000000
vn 0.0000 1.0000 0.0000
usemtl None
s off
f 81/93/29 83/94/29 84/95/29 82/96/29
g Plane.020_Plane.235
v -1.000000 0.000000 5.000000
v -1.000000 0.000000 3.000000
v 1.000000 0.000000 5.000000
v 1.000000 0.000000 3.000000
vt 0.000000 0.000000
vt 1.000000 0.000000
vt 1.000000 1.000000
vt 0.000000 1.000000
vn 0.0000 1.0000 0.0000
usemtl None
s off
f 85/97/30 87/98/30 88/99/30 86/100/30
g Plane.021_Plane.236
v 1.000000 0.000000 5.000000
v 1.000000 0.000000 3.000000
v 3.000000 0.000000 5.000000
v 3.000000 0.000000 3.000000
vt 0.000000 0.000000
vt 1.000000 0.000000
vt 1.000000 1.000000
vt 0.000000 1.000000
vn 0.0000 1.0000 0.0000
usemtl None
s off
f 89/101/31 91/102/31 92/103/31 90/104/31
g Plane.022_Plane.237
v 3.000000 0.000000 5.000000
v 3.000000 0.000000 3.000000
v 3.000000 2.000000 5.000000
v 5.000000 0.000000 5.000000
v 5.000000 0.000000 3.000000
v 5.000000 2.000000 5.000000
v 5.000000 2.000000 3.000000
v 3.000000 2.000000 3.000000
vt 0.375000 0.000000
vt 0.625000 0.000000
vt 0.625000 0.250000
vt 0.375000 0.250000
vt 0.125000 0.500000
vt 0.375000 0.500000
vt 0.375000 0.750000
vt 0.125000 0.750000
vt 0.625000 0.750000
vt 0.625000 1.000000
vt 0.375000 1.000000
vt 0.625000 0.500000
vt 0.875000 0.500000
vt 0.875000 0.750000
vn -1.0000 0.0000 0.0000
vn 0.0000 -1.0000 0.0000
vn 0.0000 0.0000 1.0000
vn 1.0000 0.0000 0.0000
vn 0.0000 1.0000 0.0000
vn 0.0000 0.0000 -1.0000
usemtl None
s off
f 93/105/32 95/106/32 100/107/32 94/108/32
f 94/109/33 97/110/33 96/111/33 93/112/33
f 96/111/34 98/113/34 95/114/34 93/115/34
f 97/110/35 99/116/35 98/113/35 96/111/35
f 99/116/36 100/117/36 95/118/36 98/113/36
f 94/108/37 100/107/37 99/116/37 97/110/37
g Plane.023_Plane.238
v 3.000000 0.000000 3.000000
v 3.000000 0.000000 1.000000
v 3.000000 2.000000 3.000000
v 5.000000 0.000000 3.000000
v 5.000000 0.000000 1.000000
v 5.000000 2.000000 3.000000
v 5.000000 2.000000 1.000000
v 3.000000 2.000000 1.000000
vt 0.375000 0.000000
vt 0.625000 0.000000
vt 0.625000 0.250000
vt 0.375000 0.250000
vt 0.125000 0.500000
vt 0.375000 0.500000
vt 0.375000 0.750000
vt 0.125000 0.750000
vt 0.625000 0.750000
vt 0.625000 1.000000
vt 0.375000 1.000000
vt 0.625000 0.500000
vt 0.875000 0.500000
vt 0.875000 0.750000
vn -1.0000 0.0000 0.0000
vn 0.0000 -1.0000 0.0000
vn 0.0000 0.0000 1.0000
vn 1.0000 0.0000 0.0000
vn 0.0000 1.0000 0.0000
vn 0.0000 0.0000 -1.0000
usemtl None
s off
f 101/119/38 103/120/38 108/121/38 102/122/38
f 102/123/39 105/124/39 104/125/39 101/126/39
f 104/125/40 106/127/40 103/128/40 101/129/40
f 105/124/41 107/130/41 106/127/41 104/125/41
f 107/130/42 108/131/42 103/132/42 106/127/42
f 102/122/43 108/121/43 107/130/43 105/124/43
g Plane.024_Plane.239
v -3.000000 0.000000 3.000000
v -3.000000 0.000000 1.000000
v -1.000000 0.000000 3.000000
v -1.000000 0.000000 1.000000
vt 0.000000 0.000000
vt 1.000000 0.000000
vt 1.000000 1.000000
vt 0.000000 1.000000
vn 0.0000 1.0000 0.0000
usemtl None
s off
f 109/133/44 111/134/44 112/135/44 110/136/44
g Plane.025_Plane.240
v -3.000000 0.000000 5.000000
v -3.000000 0.000000 3.000000
v -1.000000 0.000000 5.000000
v -1.000000 0.000000 3.000000
vt 0.000000 0.000000
vt 1.000000 0.000000
vt 1.000000 1.000000
vt 0.000000 1.000000
vn 0.0000 1.0000 0.0000
usemtl None
s off
f 113/137/45 115/138/45 116/139/45 114/140/45
