# Blender v2.82 (sub 7) OBJ File: ''
# www.blender.org
mtllib arrow.mtl
o Cube_Cube.001
v -0.134643 -0.134643 3.551997
v -0.134643 0.134643 3.551997
v -0.134643 -0.134643 -3.551997
v -0.134643 0.134643 -3.551997
v 0.134643 -0.134643 3.551997
v 0.134643 0.134643 3.551997
v 0.134643 -0.134643 -3.551997
v 0.134643 0.134643 -3.551997
vt 0.375000 0.000000
vt 0.625000 0.000000
vt 0.625000 0.250000
vt 0.375000 0.250000
vt 0.625000 0.500000
vt 0.375000 0.500000
vt 0.625000 0.750000
vt 0.375000 0.750000
vt 0.625000 1.000000
vt 0.375000 1.000000
vt 0.125000 0.500000
vt 0.125000 0.750000
vt 0.875000 0.500000
vt 0.875000 0.750000
vn -1.0000 0.0000 0.0000
vn 0.0000 0.0000 -1.0000
vn 1.0000 0.0000 0.0000
vn 0.0000 0.0000 1.0000
vn 0.0000 -1.0000 0.0000
vn 0.0000 1.0000 0.0000
usemtl None
s off
f 1/1/1 2/2/1 4/3/1 3/4/1
f 3/4/2 4/3/2 8/5/2 7/6/2
f 7/6/3 8/5/3 6/7/3 5/8/3
f 5/8/4 6/7/4 2/9/4 1/10/4
f 3/11/5 7/6/5 5/8/5 1/12/5
f 8/5/6 4/13/6 2/14/6 6/7/6
o Cube.001_Cube.002
v 0.000000 0.000000 4.400509
v -0.441871 -0.247706 3.516766
v -0.441871 0.247706 3.516766
v 0.441871 -0.247706 3.516766
v 0.441871 0.247706 3.516766
vt 0.625000 0.000000
vt 0.625000 0.250000
vt 0.375000 0.250000
vt 0.625000 0.500000
vt 0.375000 0.500000
vt 0.375000 0.750000
vt 0.125000 0.500000
vt 0.125000 0.750000
vt 0.875000 0.500000
vt 0.625000 0.750000
vn -0.8944 0.0000 0.4472
vn 0.0000 0.0000 -1.0000
vn 0.8944 0.0000 0.4472
vn 0.0000 -0.9629 0.2699
vn 0.0000 0.9629 0.2699
usemtl None
s off
f 9/15/7 11/16/7 10/17/7
f 10/17/8 11/16/8 13/18/8 12/19/8
f 12/19/9 13/18/9 9/20/9
f 10/21/10 12/19/10 9/22/10
f 13/18/11 11/23/11 9/24/11
o Cube.002_Cube.003
v -0.252416 -0.159757 -3.521737
v -0.252416 0.159757 -3.521737
v -0.382037 -0.241796 -4.026569
v -0.382037 0.241796 -4.026569
v 0.252416 -0.159757 -3.521737
v 0.252416 0.159757 -3.521737
v 0.382037 -0.241796 -4.026569
v 0.382037 0.241796 -4.026569
vt 0.375000 0.000000
vt 0.625000 0.000000
vt 0.625000 0.250000
vt 0.375000 0.250000
vt 0.625000 0.500000
vt 0.375000 0.500000
vt 0.625000 0.750000
vt 0.375000 0.750000
vt 0.625000 1.000000
vt 0.375000 1.000000
vt 0.125000 0.500000
vt 0.125000 0.750000
vt 0.875000 0.500000
vt 0.875000 0.750000
vn -0.9686 0.0000 0.2487
vn 0.0000 0.0000 -1.0000
vn 0.9686 0.0000 0.2487
vn 0.0000 0.0000 1.0000
vn 0.0000 -0.9871 0.1604
vn 0.0000 0.9871 0.1604
usemtl None
s off
f 14/25/12 15/26/12 17/27/12 16/28/12
f 16/28/13 17/27/13 21/29/13 20/30/13
f 20/30/14 21/29/14 19/31/14 18/32/14
f 18/32/15 19/31/15 15/33/15 14/34/15
f 16/35/16 20/30/16 18/32/16 14/36/16
f 21/29/17 17/37/17 15/38/17 19/31/17
